# Blender v2.90.1 OBJ File: ''
# www.blender.org
mtllib health_kit.mtl
o Cube_Cube.001
v -2.183774 0.005737 1.614509
v -2.183774 0.923472 1.614509
v -2.183774 0.923472 -1.614509
v -2.183774 0.005737 -1.614509
v 2.183774 0.923472 -1.614509
v 2.183774 0.005737 -1.614509
v 2.183774 0.923472 1.614509
v 2.183774 0.005737 1.614509
vt 0.082031 0.664062
vt 0.332031 0.664062
vt 0.332031 0.914062
vt 0.082031 0.914062
vt 0.093750 0.667969
vt 0.343750 0.667969
vt 0.343750 0.917969
vt 0.093750 0.917969
vt 0.058594 0.648438
vt 0.308594 0.648438
vt 0.308594 0.898438
vt 0.058594 0.898438
vt 0.085938 0.699219
vt 0.335938 0.699219
vt 0.335938 0.949219
vt 0.085938 0.949219
vt 0.046050 0.042144
vt 0.961762 0.042144
vt 0.961762 0.957856
vt 0.046050 0.957856
vt 0.000100 0.000100
vt 0.999900 0.000100
vt 0.999900 0.999900
vt 0.000100 0.999900
vn -1.0000 0.0000 0.0000
vn 0.0000 0.0000 -1.0000
vn 1.0000 -0.0000 0.0000
vn 0.0000 -0.0000 1.0000
vn 0.0000 -1.0000 -0.0000
vn 0.0000 1.0000 0.0000
usemtl Material.001
s 1
f 1/1/1 2/2/1 3/3/1 4/4/1
f 4/5/2 3/6/2 5/7/2 6/8/2
f 6/9/3 5/10/3 7/11/3 8/12/3
f 8/13/4 7/14/4 2/15/4 1/16/4
f 4/17/5 6/18/5 8/19/5 1/20/5
f 5/21/6 3/22/6 2/23/6 7/24/6
