# Blender v2.90.1 OBJ File: ''
# www.blender.org
mtllib fence04.mtl
o wood_fance_m4_t1
v -100.666847 150.000000 -7.259875
v -100.666847 150.000000 -15.960494
v -100.666847 0.000002 -16.610184
v -100.666847 0.000002 -7.259875
v -91.836288 150.000000 -16.350307
v -91.836288 0.000002 -16.350307
v -90.666847 150.000000 -7.855506
v -90.666847 0.000002 -7.000000
v 90.449173 163.653687 16.120728
v 90.449173 163.910172 13.875424
v 54.229706 19.289238 -2.645394
v 54.229706 19.032747 -0.400091
v 105.755112 160.126282 13.443172
v 69.535645 15.505339 -3.077648
v 105.755112 159.869781 15.688475
v 69.535645 15.248848 -0.832346
v 76.010681 21.983986 4.669807
v 76.010681 108.129532 -18.169683
v 73.751831 107.401733 -17.976723
v 73.751831 21.983986 4.669807
v 84.485107 21.983986 4.669808
v 84.485107 21.471441 2.736598
v 87.001221 21.471441 2.736598
v 87.001221 21.983986 4.669808
v 83.263428 103.424019 -18.991224
v 87.001221 92.707542 -16.150000
v 83.263428 103.936562 -17.058014
v 73.751831 21.471441 2.736598
v 76.010681 21.471441 2.736598
v 76.010681 107.616989 -20.102892
v 87.001221 93.220085 -14.216788
v 83.199371 107.721222 -20.130527
v 83.199371 108.388222 -18.238268
v 76.010681 110.387848 -20.837521
v 76.010681 111.054848 -18.945261
v 73.751831 106.889183 -19.909931
v 88.921936 170.000000 0.259912
v 88.921936 170.000000 -1.999993
v 88.921936 20.000000 -1.999993
v 88.921936 20.000000 0.259912
v 100.089005 170.000000 -1.999992
v 100.921921 20.000000 -1.999992
v 100.089005 170.000000 0.259913
v 100.921921 20.000000 0.259913
v -97.808205 37.999996 -2.000000
v -97.808205 37.999996 -6.999996
v -97.808205 30.000000 -6.999996
v -97.808205 30.000000 -2.000000
v 102.191803 36.999996 -6.999988
v 102.191803 30.000000 -6.999988
v 102.191803 36.999996 -1.999991
v 102.191803 30.000000 -1.999991
v -97.808205 126.999992 -2.000000
v -97.808205 126.999992 -6.999996
v -97.808205 120.000000 -6.999996
v -97.808205 120.000000 -2.000000
v 102.191803 126.999992 -6.999988
v 102.191803 120.000000 -6.999988
v 102.191803 126.999992 -1.999991
v 102.191803 120.000000 -1.999991
v 18.382881 167.601181 0.649766
v 18.382881 167.601181 -1.999996
v 18.382881 17.601175 -1.999996
v 18.382881 17.601175 0.649766
v 33.360153 167.601181 -1.999995
v 33.360153 17.601175 -1.999995
v 33.360153 167.601181 0.649767
v 33.360153 17.601175 0.649767
v 26.976982 169.336426 -14.783154
v 26.976982 169.336426 -16.783155
v 38.518463 19.778599 -0.521679
v 38.518463 19.778599 1.478322
v 39.811951 170.252274 -16.783155
v 50.488022 20.632685 -0.521678
v 39.811951 170.252274 -14.783154
v 50.488022 20.632685 1.478323
v -48.206936 169.607452 -4.687910
v -48.206936 169.286240 -7.318128
v -48.206936 20.392544 10.866136
v -48.206936 20.713766 13.496354
v -33.229675 169.286240 -7.318127
v -33.229675 20.392544 10.866136
v -33.229675 169.607452 -4.687909
v -33.229675 20.713766 13.496354
v -14.563683 8.159131 2.602468
v -14.456940 8.372154 4.423333
v -33.717873 3.873358 -12.712315
v -33.131538 3.879942 -13.386917
v -14.832840 10.129275 2.387762
v -33.400696 5.850084 -13.601625
v -13.837777 12.115091 19.362110
v -14.206521 11.379218 13.072036
v -40.594612 5.769314 -5.324666
v -41.272472 5.761702 -4.544751
v -13.568627 10.144948 19.576818
v -41.003323 3.791559 -4.330043
v -33.987030 5.843500 -12.927026
v -14.726097 10.342298 4.208631
v 7.796859 15.603004 24.246359
v 8.066009 13.632861 24.461067
v -40.325462 3.799171 -5.109956
v 4.081199 13.239685 25.848553
v -13.937364 9.409078 13.286743
v 18.371702 18.072981 33.654354
v 18.640860 16.102840 33.869068
v 14.902258 17.567516 33.365471
v 15.171408 15.597378 33.580181
v 3.812064 15.209829 25.633846
v -3.387201 12.502787 28.449015
v -3.656358 14.472929 28.234306
v 2.188858 150.494446 0.259908
v 2.188858 150.494446 -1.999996
v -3.808197 0.494446 5.528464
v -3.808197 0.494446 7.788369
v 13.355934 150.494446 -1.999996
v 8.191788 0.494446 5.528465
v 13.355934 150.494446 0.259909
v 8.191788 0.494446 7.788370
v -79.382278 166.469955 0.000001
v -79.382278 166.469955 -2.000000
v -78.341125 16.469957 -2.000000
v -78.341125 16.469957 0.000001
v -66.132896 166.469955 -1.999999
v -65.091736 16.469957 -1.999999
v -66.132896 166.469955 0.000001
v -65.091736 16.469957 0.000002
v -62.472637 174.115631 0.259906
v -62.472637 174.115631 -1.999999
v -62.472637 24.115623 -1.999999
v -62.472637 24.115623 0.259906
v -51.305569 174.115631 -1.999999
v -50.472649 24.115623 -1.999999
v -51.305569 174.115631 0.259906
v -50.472649 24.115623 0.259906
v 56.495712 12.701422 -40.338200
v 56.557373 10.702395 -40.348816
v -88.558296 4.292912 -2.661318
v -88.619942 6.291933 -2.650705
v 59.718781 10.733641 -27.875645
v -85.610046 4.322047 8.970821
v 59.657150 12.732667 -27.865032
v -85.671684 6.321074 8.981435
v -95.817215 171.585464 0.649761
v -95.817215 171.585464 -2.000001
v -97.205421 21.585478 -2.000001
v -97.205421 21.585478 0.649761
v -80.839958 171.585464 -2.000000
v -82.228165 21.585478 -2.000000
v -80.839958 171.585464 0.649762
v -82.228165 21.585478 0.649762
vt 0.882364 0.984064
vt 0.831821 0.984064
vt 0.831820 0.225918
vt 0.882363 0.225918
vt 0.781277 0.984064
vt 0.781277 0.225918
vt 0.983450 0.984064
vt 0.932907 0.984064
vt 0.932907 0.225918
vt 0.983450 0.225918
vt 0.782194 0.158062
vt 0.833940 0.158062
vt 0.833940 0.209808
vt 0.782195 0.209808
vt 0.850406 0.157005
vt 0.902151 0.157005
vt 0.902151 0.208750
vt 0.850406 0.208750
vt 0.685134 0.751811
vt 0.674132 0.751784
vt 0.674133 0.121492
vt 0.685134 0.121518
vt 0.607857 0.751784
vt 0.607857 0.121492
vt 0.762411 0.751837
vt 0.751410 0.751811
vt 0.751410 0.121518
vt 0.762411 0.121544
vt 0.674133 0.111996
vt 0.607857 0.111996
vt 0.607857 0.761280
vt 0.674132 0.761280
vt 0.257034 0.135121
vt 0.257034 0.505905
vt 0.247637 0.502772
vt 0.247637 0.135121
vt 0.192090 0.126755
vt 0.192090 0.135076
vt 0.181622 0.135076
vt 0.181621 0.126755
vt 0.197172 0.487812
vt 0.181621 0.441687
vt 0.292292 0.135121
vt 0.287209 0.487857
vt 0.236744 0.126755
vt 0.236744 0.135076
vt 0.227347 0.135076
vt 0.227347 0.126755
vt 0.227347 0.505860
vt 0.990878 0.089359
vt 0.965184 0.089359
vt 0.965183 0.009570
vt 0.990878 0.009570
vt 0.990878 0.119680
vt 0.965184 0.119680
vt 0.990878 0.172191
vt 0.965184 0.172191
vt 0.236744 0.502727
vt 0.227347 0.517786
vt 0.197439 0.506308
vt 0.990878 0.191740
vt 0.965183 0.191740
vt 0.313652 0.441777
vt 0.302760 0.441732
vt 0.302760 0.135121
vt 0.313652 0.135166
vt 0.286942 0.506353
vt 0.257034 0.517831
vt 0.990878 0.207978
vt 0.965183 0.207978
vt 0.528445 0.757015
vt 0.517476 0.756985
vt 0.517693 0.128523
vt 0.528663 0.128553
vt 0.470689 0.756969
vt 0.467417 0.128506
vt 0.586202 0.757122
vt 0.575232 0.757031
vt 0.578939 0.128570
vt 0.589908 0.128661
vt 0.517696 0.119055
vt 0.467420 0.119037
vt 0.470685 0.766437
vt 0.517473 0.766453
vt 0.765659 0.901937
vt 0.747599 0.901937
vt 0.747599 0.873040
vt 0.765659 0.873040
vt 0.010002 0.857897
vt 0.732438 0.857138
vt 0.732591 0.882423
vt 0.010177 0.886793
vt 0.766184 0.857791
vt 0.748123 0.857791
vt 0.748123 0.832506
vt 0.766184 0.832506
vt 0.732419 0.839078
vt 0.009983 0.839835
vt 0.010097 0.810938
vt 0.732519 0.813794
vt 0.010169 0.792878
vt 0.732590 0.795734
vt 0.766735 0.946325
vt 0.748674 0.946325
vt 0.748674 0.921040
vt 0.766735 0.921040
vt 0.009983 0.964267
vt 0.732415 0.964267
vt 0.732415 0.989552
vt 0.009983 0.989552
vt 0.765003 0.812033
vt 0.746942 0.812033
vt 0.746943 0.786749
vt 0.765003 0.786749
vt 0.732415 0.946206
vt 0.009983 0.946207
vt 0.009983 0.920922
vt 0.732415 0.920922
vt 0.009983 0.902862
vt 0.732415 0.902862
vt 0.090455 0.762182
vt 0.079212 0.762182
vt 0.079212 0.125740
vt 0.090455 0.125740
vt 0.015664 0.762182
vt 0.015665 0.125740
vt 0.165245 0.762182
vt 0.154003 0.762182
vt 0.154002 0.125740
vt 0.165245 0.125740
vt 0.079212 0.114497
vt 0.015665 0.114497
vt 0.015664 0.773425
vt 0.079212 0.773425
vt 0.392839 0.760005
vt 0.381959 0.760023
vt 0.378353 0.136641
vt 0.389234 0.136623
vt 0.328482 0.760023
vt 0.328483 0.136641
vt 0.457192 0.759305
vt 0.446312 0.759386
vt 0.439101 0.136046
vt 0.449981 0.135965
vt 0.378353 0.128329
vt 0.328483 0.128329
vt 0.328482 0.768335
vt 0.381959 0.768335
vt 0.090455 0.762182
vt 0.079212 0.762182
vt 0.079212 0.125740
vt 0.090455 0.125740
vt 0.015664 0.762182
vt 0.015665 0.125740
vt 0.165245 0.762182
vt 0.154003 0.762182
vt 0.154002 0.125740
vt 0.165245 0.125740
vt 0.079212 0.114497
vt 0.015665 0.114497
vt 0.015664 0.773425
vt 0.079212 0.773425
vt 0.378951 0.240015
vt 0.373537 0.245394
vt 0.374639 0.136641
vt 0.378353 0.136641
vt 0.389832 0.239996
vt 0.389234 0.136623
vt 0.440877 0.289554
vt 0.421961 0.271190
vt 0.434807 0.136096
vt 0.439101 0.136046
vt 0.451757 0.289473
vt 0.449981 0.135965
vt 0.378353 0.128329
vt 0.374639 0.128329
vt 0.027800 0.025525
vt 0.000019 0.025525
vt 0.000019 0.000017
vt 0.027800 0.000017
vt 0.960890 0.208138
vt 0.948014 0.208138
vt 0.948014 0.011125
vt 0.960890 0.011125
vt 0.332777 0.136641
vt 0.332777 0.128329
vt 0.372249 0.372564
vt 0.357022 0.363716
vt 0.347184 0.271578
vt 0.392948 0.136580
vt 0.395307 0.245312
vt 0.987620 0.201198
vt 0.962700 0.201199
vt 0.962701 0.022174
vt 0.987621 0.022174
vt 0.839563 0.058489
vt 0.814643 0.058490
vt 0.814642 0.014656
vt 0.839562 0.014656
vt 0.946822 0.194912
vt 0.921902 0.194912
vt 0.921901 0.023920
vt 0.946820 0.023920
vt 0.452416 0.346442
vt 0.441536 0.346523
vt 0.413190 0.363436
vt 0.911282 0.122379
vt 0.886362 0.122379
vt 0.886362 0.023417
vt 0.911281 0.023416
vt 0.328482 0.347132
vt 0.328483 0.290159
vt 0.363077 0.420426
vt 0.371645 0.432273
vt 0.398066 0.372460
vt 0.328483 0.136641
vt 0.328483 0.128329
vt 0.407792 0.420212
vt 0.399361 0.432157
vt 0.528445 0.757015
vt 0.517476 0.756985
vt 0.517693 0.128523
vt 0.528663 0.128553
vt 0.470689 0.756969
vt 0.467417 0.128506
vt 0.586202 0.757122
vt 0.575232 0.757031
vt 0.578939 0.128570
vt 0.589908 0.128661
vt 0.517696 0.119055
vt 0.467420 0.119037
vt 0.470685 0.766437
vt 0.517473 0.766453
vt 0.247637 0.759183
vt 0.236744 0.759138
vt 0.236744 0.135076
vt 0.247637 0.135121
vt 0.181621 0.759138
vt 0.181622 0.135076
vt 0.313652 0.759228
vt 0.302760 0.759183
vt 0.302760 0.135121
vt 0.313652 0.135166
vt 0.236744 0.126755
vt 0.181621 0.126755
vt 0.181621 0.767459
vt 0.236744 0.767459
vt 0.528445 0.757015
vt 0.517476 0.756985
vt 0.517693 0.128523
vt 0.528663 0.128553
vt 0.470689 0.756969
vt 0.467417 0.128506
vt 0.586202 0.757122
vt 0.575232 0.757031
vt 0.578939 0.128570
vt 0.589908 0.128661
vt 0.517696 0.119055
vt 0.467420 0.119037
vt 0.470685 0.766437
vt 0.517473 0.766453
vt 0.392839 0.760005
vt 0.381959 0.760023
vt 0.378353 0.136641
vt 0.389234 0.136623
vt 0.328482 0.760023
vt 0.328483 0.136641
vt 0.457192 0.759305
vt 0.446312 0.759386
vt 0.439101 0.136046
vt 0.449981 0.135965
vt 0.378353 0.128329
vt 0.328483 0.128329
vt 0.328482 0.768335
vt 0.381959 0.768335
vt 0.090455 0.762182
vt 0.079212 0.762182
vt 0.079212 0.125740
vt 0.090455 0.125740
vt 0.015664 0.762182
vt 0.015665 0.125740
vt 0.165245 0.762182
vt 0.154003 0.762182
vt 0.154002 0.125740
vt 0.165245 0.125740
vt 0.079212 0.114497
vt 0.015665 0.114497
vt 0.015664 0.773425
vt 0.079212 0.773425
vn -1.0000 0.0000 0.0000
vn -0.0074 0.0022 -1.0000
vn 0.9915 -0.0004 -0.1300
vn 0.0168 0.0029 0.9999
vn 0.0000 -1.0000 0.0000
vn 0.0000 1.0000 0.0000
vn -0.9704 0.2399 0.0274
vn 0.0000 0.1135 -0.9935
vn 0.9704 -0.2399 -0.0274
vn -0.0000 -0.1135 0.9935
vn -0.2415 -0.9641 -0.1101
vn 0.2415 0.9641 0.1101
vn 0.0000 0.2563 0.9666
vn -0.0000 -0.9666 0.2563
vn -0.0000 -0.2563 -0.9666
vn 0.9476 0.3088 -0.0819
vn 0.9999 0.0135 -0.0042
vn 0.3573 0.8809 -0.3105
vn 1.0000 -0.0000 0.0000
vn -0.3162 0.9170 -0.2431
vn 0.0000 0.0000 -1.0000
vn 1.0000 0.0056 0.0000
vn -0.0000 -0.0000 1.0000
vn 0.0050 1.0000 0.0000
vn -0.9970 -0.0769 0.0000
vn 0.0077 -0.1075 -0.9942
vn 0.9975 0.0712 0.0000
vn -0.0077 0.1075 0.9942
vn 0.0712 -0.9975 0.0000
vn -0.0712 0.9975 0.0000
vn 0.0000 -0.1212 -0.9926
vn 0.0000 0.1212 0.9926
vn 0.0000 -0.9926 0.1212
vn 0.0000 0.9926 -0.1212
vn 0.1346 -0.9851 0.1074
vn 0.6517 0.0064 -0.7585
vn -0.1346 0.9851 -0.1074
vn -0.6560 -0.0074 0.7547
vn -0.7427 -0.1720 -0.6472
vn 0.9892 0.1272 -0.0729
vn 0.6635 0.0091 -0.7481
vn -0.0963 0.0948 0.9908
vn -0.5734 0.0109 0.8192
vn 0.3126 0.1450 0.9388
vn -0.9992 0.0399 0.0000
vn 0.0000 -0.0501 -0.9987
vn 0.9994 -0.0344 0.0000
vn -0.0000 0.0501 0.9987
vn -1.0000 -0.0069 0.0000
vn 1.0000 0.0069 0.0000
vn -0.2513 -0.0026 -0.9679
vn 0.0420 -0.9991 -0.0081
vn 0.2457 0.0024 0.9694
vn -0.0420 0.9991 0.0081
vn -0.9689 -0.0312 0.2456
vn 0.9689 0.0312 -0.2456
vn -1.0000 0.0093 0.0000
vn 1.0000 -0.0093 0.0000
usemtl wood_fance_t1_m
s 1
f 1/1/1 2/2/1 3/3/1 4/4/1
f 2/2/2 5/5/2 6/6/2 3/3/2
f 5/7/3 7/8/3 8/9/3 6/10/3
f 7/8/4 1/1/4 4/4/4 8/9/4
f 4/11/5 3/12/5 6/13/5 8/14/5
f 7/15/6 5/16/6 2/17/6 1/18/6
f 9/19/7 10/20/7 11/21/7 12/22/7
f 10/20/8 13/23/8 14/24/8 11/21/8
f 13/25/9 15/26/9 16/27/9 14/28/9
f 15/26/10 9/19/10 12/22/10 16/27/10
f 12/29/11 11/21/11 14/24/11 16/30/11
f 15/31/12 13/23/12 10/20/12 9/32/12
f 17/33/13 18/34/13 19/35/13 20/36/13
f 21/37/14 22/38/14 23/39/14 24/40/14
f 22/38/15 25/41/15 26/42/15 23/39/15
f 21/43/13 27/44/13 18/34/13 17/33/13
f 20/45/14 28/46/14 29/47/14 17/48/14
f 29/47/15 30/49/15 25/41/15 22/38/15
f 25/50/16 27/51/16 31/52/16 26/53/16
f 32/54/17 33/55/17 27/51/17 25/50/17
f 34/56/18 35/57/18 33/55/18 32/54/18
f 17/48/14 29/47/14 22/38/14 21/37/14
f 19/35/1 36/58/1 28/46/1 20/36/1
f 25/41/15 30/49/15 34/59/15 32/60/15
f 30/61/1 18/62/1 35/57/1 34/56/1
f 36/58/15 30/49/15 29/47/15 28/46/15
f 26/63/19 31/64/19 24/65/19 23/66/19
f 18/34/13 27/44/13 33/67/13 35/68/13
f 36/69/20 19/70/20 18/62/20 30/61/20
f 31/64/13 27/44/13 21/43/13 24/65/13
f 37/71/1 38/72/1 39/73/1 40/74/1
f 38/72/21 41/75/21 42/76/21 39/73/21
f 41/77/22 43/78/22 44/79/22 42/80/22
f 43/78/23 37/71/23 40/74/23 44/79/23
f 40/81/5 39/73/5 42/76/5 44/82/5
f 43/83/6 41/75/6 38/72/6 37/84/6
f 45/85/1 46/86/1 47/87/1 48/88/1
f 46/89/21 49/90/21 50/91/21 47/92/21
f 49/93/19 51/94/19 52/95/19 50/96/19
f 51/97/23 45/98/23 48/99/23 52/100/23
f 48/99/5 47/101/5 50/102/5 52/100/5
f 51/97/24 49/90/24 46/89/24 45/98/24
f 53/103/1 54/104/1 55/105/1 56/106/1
f 54/107/21 57/108/21 58/109/21 55/110/21
f 57/111/19 59/112/19 60/113/19 58/114/19
f 59/115/23 53/116/23 56/117/23 60/118/23
f 56/117/5 55/119/5 58/120/5 60/118/5
f 59/115/6 57/108/6 54/107/6 53/116/6
f 61/121/1 62/122/1 63/123/1 64/124/1
f 62/122/21 65/125/21 66/126/21 63/123/21
f 65/127/19 67/128/19 68/129/19 66/130/19
f 67/128/23 61/121/23 64/124/23 68/129/23
f 64/131/5 63/123/5 66/126/5 68/132/5
f 67/133/6 65/125/6 62/122/6 61/134/6
f 69/135/25 70/136/25 71/137/25 72/138/25
f 70/136/26 73/139/26 74/140/26 71/137/26
f 73/141/27 75/142/27 76/143/27 74/144/27
f 75/142/28 69/135/28 72/138/28 76/143/28
f 72/145/29 71/137/29 74/140/29 76/146/29
f 75/147/30 73/139/30 70/136/30 69/148/30
f 77/149/1 78/150/1 79/151/1 80/152/1
f 78/150/31 81/153/31 82/154/31 79/151/31
f 81/155/19 83/156/19 84/157/19 82/158/19
f 83/156/32 77/149/32 80/152/32 84/157/32
f 80/159/33 79/151/33 82/154/33 84/160/33
f 83/161/34 81/153/34 78/150/34 77/162/34
f 85/163/35 86/164/35 87/165/35 88/166/35
f 89/167/36 85/163/36 88/166/36 90/168/36
f 91/169/37 92/170/37 93/171/37 94/172/37
f 95/173/38 91/169/38 94/172/38 96/174/38
f 90/175/39 88/166/39 87/165/39 97/176/39
f 98/177/40 86/178/40 85/179/40 89/180/40
f 99/181/41 100/182/41 86/183/41 98/184/41
f 97/176/39 87/165/39 101/185/39 93/186/39
f 86/164/35 100/187/35 102/188/35 103/189/35
f 97/190/37 98/191/37 89/167/37 90/168/37
f 87/165/35 86/164/35 103/189/35 101/185/35
f 104/192/41 105/193/41 100/194/41 99/195/41
f 106/196/42 107/197/42 105/198/42 104/199/42
f 108/200/43 102/201/43 107/202/43 106/203/43
f 109/204/38 110/205/38 91/169/38 95/173/38
f 110/205/37 108/206/37 92/170/37 91/169/37
f 110/207/44 109/208/44 102/209/44 108/210/44
f 103/189/35 102/188/35 109/211/35 95/212/35
f 107/213/35 102/188/35 100/187/35 105/214/35
f 92/170/37 108/206/37 99/215/37 98/191/37
f 93/171/37 92/170/37 98/191/37 97/190/37
f 101/185/35 103/189/35 95/212/35 96/216/35
f 93/186/39 101/185/39 96/216/39 94/217/39
f 108/206/37 106/218/37 104/219/37 99/215/37
f 111/220/45 112/221/45 113/222/45 114/223/45
f 112/221/46 115/224/46 116/225/46 113/222/46
f 115/226/47 117/227/47 118/228/47 116/229/47
f 117/227/48 111/220/48 114/223/48 118/228/48
f 114/230/5 113/222/5 116/225/5 118/231/5
f 117/232/6 115/224/6 112/221/6 111/233/6
f 119/234/49 120/235/49 121/236/49 122/237/49
f 120/235/21 123/238/21 124/239/21 121/236/21
f 123/240/50 125/241/50 126/242/50 124/243/50
f 125/241/23 119/234/23 122/237/23 126/242/23
f 122/244/5 121/236/5 124/239/5 126/245/5
f 125/246/6 123/238/6 120/235/6 119/247/6
f 127/248/1 128/249/1 129/250/1 130/251/1
f 128/249/21 131/252/21 132/253/21 129/250/21
f 131/254/22 133/255/22 134/256/22 132/257/22
f 133/255/23 127/248/23 130/251/23 134/256/23
f 130/258/5 129/250/5 132/253/5 134/259/5
f 133/260/6 131/252/6 128/249/6 127/261/6
f 135/262/51 136/263/51 137/264/51 138/265/51
f 136/263/52 139/266/52 140/267/52 137/264/52
f 139/268/53 141/269/53 142/270/53 140/271/53
f 141/269/54 135/262/54 138/265/54 142/270/54
f 138/272/55 137/264/55 140/267/55 142/273/55
f 141/274/56 139/266/56 136/263/56 135/275/56
f 143/276/57 144/277/57 145/278/57 146/279/57
f 144/277/21 147/280/21 148/281/21 145/278/21
f 147/282/58 149/283/58 150/284/58 148/285/58
f 149/283/23 143/276/23 146/279/23 150/284/23
f 146/286/5 145/278/5 148/281/5 150/287/5
f 149/288/6 147/280/6 144/277/6 143/289/6
