# Blender v2.90.1 OBJ File: ''
# www.blender.org
mtllib fence03.mtl
o wood_fance_m3_t1
v -89.352921 150.000000 -7.091143
v -97.685432 150.000000 -6.910480
v -99.351288 0.000002 -6.910480
v -89.352921 0.000002 -7.091143
v -97.866104 150.000000 -14.937750
v -99.531952 0.000002 -16.908840
v -89.533592 150.000000 -15.118413
v -89.533592 0.000002 -17.089502
v 84.292297 170.000000 0.259912
v 84.292297 170.000000 -1.999993
v 84.292297 20.000000 -1.999993
v 84.292297 20.000000 0.259912
v 95.459366 170.000000 -1.999992
v 96.292282 20.000000 -1.999992
v 95.459366 170.000000 0.259913
v 96.292282 20.000000 0.259913
v -104.442444 37.999996 -2.000000
v -104.442444 37.999996 -6.999996
v -104.442444 30.000000 -6.999996
v -104.442444 30.000000 -2.000000
v 45.557556 33.501831 -6.999990
v 95.557571 35.334145 -6.999987
v 95.557571 28.334148 -6.999987
v 45.557556 26.251833 -6.999990
v 95.557571 35.334145 -1.999991
v 95.557571 28.334148 -1.999991
v -54.442444 35.667679 -1.999998
v -54.442444 27.917685 -1.999998
v 45.557556 26.251833 -1.999993
v -54.442444 35.667683 -6.999994
v -104.442444 126.999992 -2.000000
v -104.442444 126.999992 -6.999996
v -104.442444 120.000000 -6.999996
v -104.442444 120.000000 -2.000000
v 45.557556 124.501213 -6.999990
v 95.557571 126.167068 -6.999987
v 95.557571 119.167076 -6.999987
v 45.557556 117.501221 -6.999990
v 95.557571 126.167068 -1.999991
v 95.557571 119.167076 -1.999991
v -54.442444 125.750610 -1.999998
v -54.442444 118.750618 -1.999998
v 45.557556 117.501221 -1.999993
v -54.442444 125.750610 -6.999994
v 45.557556 124.501213 -1.999993
v -4.442443 124.917679 -6.999991
v -4.442444 124.917679 -1.999996
v -54.442444 118.750618 -6.999994
v -4.442443 117.917686 -6.999991
v -4.442444 117.917686 -1.999996
v 45.557556 33.501831 -1.999993
v -4.442443 34.168293 -6.999991
v -4.442444 34.168293 -1.999996
v -54.442444 27.917685 -6.999994
v -4.442443 26.668297 -6.999991
v -4.442444 26.668297 -1.999996
v 58.416275 169.305740 3.919050
v 58.416275 169.305740 1.919049
v 69.496628 19.715544 -1.999993
v 69.496628 19.715544 0.000008
v 71.629456 170.284454 1.919050
v 82.709824 20.694263 -1.999993
v 71.629456 170.284454 3.919051
v 82.709824 20.694263 0.000008
v 49.827576 170.199982 0.259911
v 49.827576 170.199982 -1.999994
v 45.402847 20.265270 -1.999994
v 45.402847 20.265270 0.259911
v 65.593338 169.734741 -1.999993
v 61.168610 19.800009 -1.999994
v 65.593338 169.734741 0.259911
v 61.168610 19.800009 0.259911
v 30.917725 165.002441 0.000006
v 30.917725 165.002441 -1.999995
v 31.785355 15.002441 -1.999995
v 31.785355 15.002441 0.000006
v 43.785339 165.002441 -1.999994
v 43.785339 15.002441 -1.999994
v 43.785339 165.002441 0.000007
v 43.785339 15.002441 0.000007
v 15.256042 170.000000 12.531806
v 15.256042 170.000000 9.882045
v 15.256042 20.000000 -1.999996
v 15.256042 20.000000 0.649766
v 30.233307 170.000000 9.882045
v 30.233307 20.000000 -1.999995
v 30.233307 170.000000 12.531806
v 30.233307 20.000000 0.649767
v -32.300865 170.213440 0.000003
v -32.300865 170.213440 -1.999998
v -38.660194 20.348288 -1.999998
v -38.660194 20.348288 0.000003
v -19.063393 169.651718 -1.999997
v -25.422714 19.786573 -1.999997
v -19.063393 169.651718 0.000004
v -25.422714 19.786573 0.000003
v -21.611473 152.000015 1.715182
v -21.611473 152.000015 -0.284819
v -21.611473 2.000017 3.703381
v -21.611473 2.000017 5.703382
v -8.362091 152.000015 -0.284819
v -8.362091 2.000017 3.703381
v -8.362091 152.000015 1.715182
v -8.362091 2.000017 5.703382
v 1.111908 170.000000 0.259909
v 1.111908 170.000000 -1.999996
v 1.111908 20.000000 -1.999996
v 1.111908 20.000000 0.259909
v 12.278984 170.000000 -1.999996
v 13.111900 20.000000 -1.999996
v 12.278984 170.000000 0.259909
v 13.111900 20.000000 0.259909
v -96.105766 165.002441 0.649761
v -96.105766 165.002441 -2.000000
v -96.105766 16.251833 -2.000000
v -96.105766 16.251833 0.649761
v -81.128510 166.251831 -2.000000
v -81.128510 16.251833 -2.000000
v -81.128510 166.251831 0.649762
v -81.128510 16.251833 0.649762
v -79.060852 169.502563 0.000001
v -79.060852 169.502563 -2.000000
v -69.693970 19.792803 -1.999999
v -69.693970 19.792803 0.000002
v -66.213913 170.231796 -1.999999
v -57.713272 20.472851 -1.999999
v -66.213913 170.231796 0.000002
v -57.713272 20.472851 0.000002
v -64.664307 169.351532 0.259906
v -64.664307 169.351532 -1.999999
v -55.182732 19.651485 -1.999999
v -55.182732 19.651485 0.259906
v -48.923225 170.348526 -1.999998
v -39.441650 20.648481 -1.999998
v -48.923225 170.348526 0.259906
v -39.441650 20.648481 0.259907
vt 0.882364 0.984064
vt 0.831821 0.984064
vt 0.831820 0.225918
vt 0.882363 0.225918
vt 0.781277 0.984064
vt 0.781277 0.225918
vt 0.983450 0.984064
vt 0.932907 0.984064
vt 0.932907 0.225918
vt 0.983450 0.225918
vt 0.782194 0.158062
vt 0.833940 0.158062
vt 0.833940 0.209808
vt 0.782195 0.209808
vt 0.850406 0.157005
vt 0.902151 0.157005
vt 0.902151 0.208750
vt 0.850406 0.208750
vt 0.528445 0.757015
vt 0.517476 0.756985
vt 0.517693 0.128523
vt 0.528663 0.128553
vt 0.470689 0.756969
vt 0.467417 0.128506
vt 0.586202 0.757122
vt 0.575232 0.757031
vt 0.578939 0.128570
vt 0.589908 0.128661
vt 0.517696 0.119055
vt 0.467420 0.119037
vt 0.470685 0.766437
vt 0.517473 0.766453
vt 0.765659 0.901937
vt 0.747599 0.901937
vt 0.747599 0.873040
vt 0.765659 0.873040
vt 0.551829 0.857328
vt 0.732438 0.857138
vt 0.732591 0.882423
vt 0.551987 0.883515
vt 0.766184 0.857791
vt 0.748123 0.857791
vt 0.748123 0.832506
vt 0.766184 0.832506
vt 0.190592 0.839646
vt 0.009983 0.839835
vt 0.010097 0.810938
vt 0.190703 0.811652
vt 0.551913 0.813080
vt 0.551985 0.795020
vt 0.732590 0.795734
vt 0.732519 0.813794
vt 0.190611 0.857707
vt 0.010002 0.857897
vt 0.766735 0.946325
vt 0.748674 0.946325
vt 0.748674 0.921040
vt 0.766735 0.921040
vt 0.551807 0.964267
vt 0.732415 0.964267
vt 0.732415 0.989552
vt 0.551807 0.989552
vt 0.765003 0.812033
vt 0.746942 0.812033
vt 0.746943 0.786749
vt 0.765003 0.786749
vt 0.190591 0.946207
vt 0.009983 0.946207
vt 0.009983 0.920922
vt 0.190591 0.920922
vt 0.551807 0.920922
vt 0.551807 0.902862
vt 0.732415 0.902862
vt 0.732415 0.920922
vt 0.190591 0.964267
vt 0.009983 0.964267
vt 0.732415 0.946206
vt 0.551807 0.946206
vt 0.371199 0.964267
vt 0.371199 0.946207
vt 0.009983 0.902862
vt 0.190591 0.902862
vt 0.371199 0.902862
vt 0.371199 0.920922
vt 0.190591 0.989552
vt 0.009983 0.989552
vt 0.371199 0.989552
vt 0.732419 0.839078
vt 0.551810 0.839267
vt 0.371220 0.857518
vt 0.371201 0.839456
vt 0.010169 0.792878
vt 0.190774 0.793592
vt 0.371379 0.794306
vt 0.371308 0.812366
vt 0.190780 0.885700
vt 0.010177 0.886793
vt 0.371384 0.884608
vt 0.247637 0.759183
vt 0.236744 0.759138
vt 0.236744 0.135076
vt 0.247637 0.135121
vt 0.181621 0.759138
vt 0.181622 0.135076
vt 0.313652 0.759228
vt 0.302760 0.759183
vt 0.302760 0.135121
vt 0.313652 0.135166
vt 0.236744 0.126755
vt 0.181621 0.126755
vt 0.181621 0.767459
vt 0.236744 0.767459
vt 0.685134 0.751811
vt 0.674132 0.751784
vt 0.674133 0.121492
vt 0.685134 0.121518
vt 0.607857 0.751784
vt 0.607857 0.121492
vt 0.762411 0.751837
vt 0.751410 0.751811
vt 0.751410 0.121518
vt 0.762411 0.121544
vt 0.674133 0.111996
vt 0.607857 0.111996
vt 0.607857 0.761280
vt 0.674132 0.761280
vt 0.392839 0.760005
vt 0.381959 0.760023
vt 0.378353 0.136641
vt 0.389234 0.136623
vt 0.328482 0.760023
vt 0.328483 0.136641
vt 0.457192 0.759305
vt 0.446312 0.759386
vt 0.439101 0.136046
vt 0.449981 0.135965
vt 0.378353 0.128329
vt 0.328483 0.128329
vt 0.328482 0.768335
vt 0.381959 0.768335
vt 0.090455 0.762182
vt 0.079212 0.762182
vt 0.079212 0.125740
vt 0.090455 0.125740
vt 0.015664 0.762182
vt 0.015665 0.125740
vt 0.165245 0.762182
vt 0.154003 0.762182
vt 0.154002 0.125740
vt 0.165245 0.125740
vt 0.079212 0.114497
vt 0.015665 0.114497
vt 0.015664 0.773425
vt 0.079212 0.773425
vt 0.247637 0.759183
vt 0.236744 0.759138
vt 0.236744 0.135076
vt 0.247637 0.135121
vt 0.181621 0.759138
vt 0.181622 0.135076
vt 0.313652 0.759228
vt 0.302760 0.759183
vt 0.302760 0.135121
vt 0.313652 0.135166
vt 0.236744 0.126755
vt 0.181621 0.126755
vt 0.181621 0.767459
vt 0.236744 0.767459
vt 0.247637 0.759183
vt 0.236744 0.759138
vt 0.236744 0.135076
vt 0.247637 0.135121
vt 0.181621 0.759138
vt 0.181622 0.135076
vt 0.313652 0.759228
vt 0.302760 0.759183
vt 0.302760 0.135121
vt 0.313652 0.135166
vt 0.236744 0.126755
vt 0.181621 0.126755
vt 0.181621 0.767459
vt 0.236744 0.767459
vt 0.528445 0.757015
vt 0.517476 0.756985
vt 0.517693 0.128523
vt 0.528663 0.128553
vt 0.470689 0.756969
vt 0.467417 0.128506
vt 0.586202 0.757122
vt 0.575232 0.757031
vt 0.578939 0.128570
vt 0.589908 0.128661
vt 0.517696 0.119055
vt 0.467420 0.119037
vt 0.470685 0.766437
vt 0.517473 0.766453
vt 0.090455 0.762182
vt 0.079212 0.762182
vt 0.079212 0.125740
vt 0.090455 0.125740
vt 0.015664 0.762182
vt 0.015665 0.125740
vt 0.165245 0.762182
vt 0.154003 0.762182
vt 0.154002 0.125740
vt 0.165245 0.125740
vt 0.079212 0.114497
vt 0.015665 0.114497
vt 0.015664 0.773425
vt 0.079212 0.773425
vt 0.392839 0.760005
vt 0.381959 0.760023
vt 0.378353 0.136641
vt 0.389234 0.136623
vt 0.328482 0.760023
vt 0.328483 0.136641
vt 0.457192 0.759305
vt 0.446312 0.759386
vt 0.439101 0.136046
vt 0.449981 0.135965
vt 0.378353 0.128329
vt 0.328483 0.128329
vt 0.328482 0.768335
vt 0.381959 0.768335
vt 0.685134 0.751811
vt 0.674132 0.751784
vt 0.674133 0.121492
vt 0.685134 0.121518
vt 0.607857 0.751784
vt 0.607857 0.121492
vt 0.762411 0.751837
vt 0.751410 0.751811
vt 0.751410 0.121518
vt 0.762411 0.121544
vt 0.674133 0.111996
vt 0.607857 0.111996
vt 0.607857 0.761280
vt 0.674132 0.761280
vn 0.0197 -0.0001 0.9998
vn -0.9997 0.0110 0.0200
vn -0.0197 0.0132 -0.9997
vn 0.9998 0.0001 -0.0200
vn 0.0000 -1.0000 0.0000
vn 0.0000 1.0000 0.0000
vn -1.0000 0.0000 0.0000
vn 0.0000 0.0000 -1.0000
vn 1.0000 0.0056 0.0000
vn -0.0000 -0.0000 1.0000
vn 1.0000 0.0000 0.0000
vn 0.0166 -0.9999 0.0000
vn 0.0416 -0.9991 0.0000
vn 0.0383 0.9993 0.0000
vn 0.0466 0.9989 0.0000
vn 0.0125 -0.9999 0.0000
vn 0.0333 -0.9994 0.0000
vn 0.0208 0.9998 0.0000
vn 0.0250 0.9997 0.0000
vn -0.0333 0.9994 0.0000
vn -0.0125 0.9999 0.0000
vn 0.0125 0.9999 0.0000
vn -0.0250 -0.9997 0.0000
vn -0.0208 -0.9998 0.0000
vn -0.0125 -0.9999 0.0000
vn -0.0366 0.9993 0.0000
vn -0.0117 0.9999 0.0000
vn 0.0217 0.9998 0.0000
vn -0.0416 -0.9991 0.0000
vn -0.0333 -0.9994 0.0000
vn -0.0167 -0.9999 0.0000
vn -0.9973 -0.0739 0.0000
vn -0.0019 0.0260 -0.9997
vn 0.9973 0.0739 0.0000
vn 0.0019 -0.0260 0.9997
vn 0.0739 -0.9973 0.0000
vn -0.0739 0.9973 0.0000
vn -0.9996 0.0295 0.0000
vn 0.9996 -0.0295 0.0000
vn -0.0295 -0.9996 0.0000
vn 0.0295 0.9996 0.0000
vn -1.0000 -0.0058 0.0000
vn 0.0000 0.0790 -0.9969
vn -0.0000 -0.0790 0.9969
vn -0.9991 0.0424 0.0000
vn 0.9991 -0.0424 0.0000
vn -0.0424 -0.9991 0.0000
vn 0.0424 0.9991 0.0000
vn 0.0000 -0.0266 -0.9996
vn -0.0000 0.0266 0.9996
vn -0.0831 0.9965 0.0000
vn -0.9980 -0.0624 0.0000
vn 0.9984 0.0567 0.0000
vn 0.0567 -0.9984 0.0000
vn -0.0567 0.9984 0.0000
vn -0.9980 -0.0632 0.0000
vn 0.9980 0.0632 0.0000
vn 0.0632 -0.9980 0.0000
vn -0.0632 0.9980 0.0000
usemtl wood_fance_t1_m
s 1
f 1/1/1 2/2/1 3/3/1 4/4/1
f 2/2/2 5/5/2 6/6/2 3/3/2
f 5/7/3 7/8/3 8/9/3 6/10/3
f 7/8/4 1/1/4 4/4/4 8/9/4
f 4/11/5 3/12/5 6/13/5 8/14/5
f 7/15/6 5/16/6 2/17/6 1/18/6
f 9/19/7 10/20/7 11/21/7 12/22/7
f 10/20/8 13/23/8 14/24/8 11/21/8
f 13/25/9 15/26/9 16/27/9 14/28/9
f 15/26/10 9/19/10 12/22/10 16/27/10
f 12/29/5 11/21/5 14/24/5 16/30/5
f 15/31/6 13/23/6 10/20/6 9/32/6
f 17/33/7 18/34/7 19/35/7 20/36/7
f 21/37/8 22/38/8 23/39/8 24/40/8
f 22/41/11 25/42/11 26/43/11 23/44/11
f 27/45/10 17/46/10 20/47/10 28/48/10
f 29/49/12 24/50/12 23/51/13 26/52/13
f 27/45/14 30/53/14 18/54/15 17/46/15
f 31/55/7 32/56/7 33/57/7 34/58/7
f 35/59/8 36/60/8 37/61/8 38/62/8
f 36/63/11 39/64/11 40/65/11 37/66/11
f 41/67/10 31/68/10 34/69/10 42/70/10
f 43/71/16 38/72/16 37/73/17 40/74/17
f 41/67/18 44/75/18 32/76/19 31/68/19
f 39/77/20 36/60/20 35/59/21 45/78/21
f 45/78/21 35/59/21 46/79/22 47/80/22
f 47/80/22 46/79/22 44/75/18 41/67/18
f 34/69/23 33/81/23 48/82/24 42/70/24
f 42/70/24 48/82/24 49/83/25 50/84/25
f 50/84/25 49/83/25 38/72/16 43/71/16
f 39/77/10 45/78/10 43/71/10 40/74/10
f 45/78/10 47/80/10 50/84/10 43/71/10
f 47/80/10 41/67/10 42/70/10 50/84/10
f 32/76/8 44/75/8 48/85/8 33/86/8
f 44/75/8 46/79/8 49/87/8 48/85/8
f 46/79/8 35/59/8 38/62/8 49/87/8
f 25/88/26 22/38/26 21/37/27 51/89/27
f 51/89/27 21/37/27 52/90/28 53/91/28
f 53/91/28 52/90/28 30/53/14 27/45/14
f 20/47/29 19/92/29 54/93/30 28/48/30
f 28/48/30 54/93/30 55/94/31 56/95/31
f 56/95/31 55/94/31 24/50/12 29/49/12
f 25/88/10 51/89/10 29/49/10 26/52/10
f 51/89/10 53/91/10 56/95/10 29/49/10
f 53/91/10 27/45/10 28/48/10 56/95/10
f 18/54/8 30/53/8 54/96/8 19/97/8
f 30/53/8 52/90/8 55/98/8 54/96/8
f 52/90/8 21/37/8 24/40/8 55/98/8
f 57/99/32 58/100/32 59/101/32 60/102/32
f 58/100/33 61/103/33 62/104/33 59/101/33
f 61/105/34 63/106/34 64/107/34 62/108/34
f 63/106/35 57/99/35 60/102/35 64/107/35
f 60/109/36 59/101/36 62/104/36 64/110/36
f 63/111/37 61/103/37 58/100/37 57/112/37
f 65/113/38 66/114/38 67/115/38 68/116/38
f 66/114/8 69/117/8 70/118/8 67/115/8
f 69/119/39 71/120/39 72/121/39 70/122/39
f 71/120/10 65/113/10 68/116/10 72/121/10
f 68/123/40 67/115/40 70/118/40 72/124/40
f 71/125/41 69/117/41 66/114/41 65/126/41
f 73/127/42 74/128/42 75/129/42 76/130/42
f 74/128/8 77/131/8 78/132/8 75/129/8
f 77/133/11 79/134/11 80/135/11 78/136/11
f 79/134/10 73/127/10 76/130/10 80/135/10
f 76/137/5 75/129/5 78/132/5 80/138/5
f 79/139/6 77/131/6 74/128/6 73/140/6
f 81/141/7 82/142/7 83/143/7 84/144/7
f 82/142/43 85/145/43 86/146/43 83/143/43
f 85/147/11 87/148/11 88/149/11 86/150/11
f 87/148/44 81/141/44 84/144/44 88/149/44
f 84/151/5 83/143/5 86/146/5 88/152/5
f 87/153/6 85/145/6 82/142/6 81/154/6
f 89/155/45 90/156/45 91/157/45 92/158/45
f 90/156/8 93/159/8 94/160/8 91/157/8
f 93/161/46 95/162/46 96/163/46 94/164/46
f 95/162/10 89/155/10 92/158/10 96/163/10
f 92/165/47 91/157/47 94/160/47 96/166/47
f 95/167/48 93/159/48 90/156/48 89/168/48
f 97/169/7 98/170/7 99/171/7 100/172/7
f 98/170/49 101/173/49 102/174/49 99/171/49
f 101/175/11 103/176/11 104/177/11 102/178/11
f 103/176/50 97/169/50 100/172/50 104/177/50
f 100/179/5 99/171/5 102/174/5 104/180/5
f 103/181/6 101/173/6 98/170/6 97/182/6
f 105/183/7 106/184/7 107/185/7 108/186/7
f 106/184/8 109/187/8 110/188/8 107/185/8
f 109/189/9 111/190/9 112/191/9 110/192/9
f 111/190/10 105/183/10 108/186/10 112/191/10
f 108/193/5 107/185/5 110/188/5 112/194/5
f 111/195/6 109/187/6 106/184/6 105/196/6
f 113/197/7 114/198/7 115/199/7 116/200/7
f 114/198/8 117/201/8 118/202/8 115/199/8
f 117/203/11 119/204/11 120/205/11 118/206/11
f 119/204/10 113/197/10 116/200/10 120/205/10
f 116/207/5 115/199/5 118/202/5 120/208/5
f 119/209/51 117/201/51 114/198/51 113/210/51
f 121/211/52 122/212/52 123/213/52 124/214/52
f 122/212/8 125/215/8 126/216/8 123/213/8
f 125/217/53 127/218/53 128/219/53 126/220/53
f 127/218/10 121/211/10 124/214/10 128/219/10
f 124/221/54 123/213/54 126/216/54 128/222/54
f 127/223/55 125/215/55 122/212/55 121/224/55
f 129/225/56 130/226/56 131/227/56 132/228/56
f 130/226/8 133/229/8 134/230/8 131/227/8
f 133/231/57 135/232/57 136/233/57 134/234/57
f 135/232/10 129/225/10 132/228/10 136/233/10
f 132/235/58 131/227/58 134/230/58 136/236/58
f 135/237/59 133/229/59 130/226/59 129/238/59
