# Blender v2.90.1 OBJ File: ''
# www.blender.org
mtllib fence00.mtl
o wood_fance_m0_t1.001
v -103.800690 38.020039 -7.000000
v -103.800690 38.020035 -16.999996
v -104.217163 0.520039 -16.999996
v -104.217163 0.520039 -7.000000
v -94.202385 38.020035 -16.729292
v -94.217171 0.520039 -16.729292
v -94.202385 38.020035 -7.631641
v -94.217171 0.520039 -7.631641
v -94.217171 150.520035 -7.631641
v -94.217171 150.520035 -16.729292
v -104.217163 150.520035 -16.999996
v -104.217163 150.520035 -7.000000
v -103.800690 113.020027 -7.000000
v -93.800705 113.020027 -7.000000
v -103.800690 75.520035 -7.000000
v -94.403229 75.520035 -7.631641
v -93.800705 113.020027 -16.729292
v -94.403229 75.520035 -16.729292
v -103.800690 113.020027 -16.999996
v -103.800690 75.520035 -16.999996
v -100.000000 38.520035 -2.000000
v -100.000000 38.520035 -6.999996
v -100.000000 30.520035 -6.999996
v -100.000000 30.520035 -2.000000
v 100.000000 37.520035 -6.999988
v 100.000000 30.520035 -6.999988
v 100.000000 37.520035 -1.999991
v 100.000000 30.520035 -1.999991
v -100.000000 127.520027 -2.000000
v -100.000000 127.520027 -6.999996
v -100.000000 120.520035 -6.999996
v -100.000000 120.520035 -2.000000
v 100.000000 127.520027 -6.999988
v 100.000000 120.520035 -6.999988
v 100.000000 127.520027 -1.999991
v 100.000000 120.520035 -1.999991
v 58.270905 170.517227 -1.999994
v 71.522339 170.520035 -1.999993
v 71.522339 23.121243 -1.999993
v 59.507675 23.057358 -1.999994
v 71.522339 170.520035 0.000007
v 71.522339 23.121243 0.000007
v 58.270905 170.517227 0.259911
v 59.507675 23.057348 0.000007
v 59.522339 20.520037 0.000007
v 59.522339 20.520037 -1.999994
v 71.522339 20.520037 -1.999993
v 71.522339 20.520037 0.000007
v 47.087982 173.373611 0.259910
v 47.087982 173.373611 -1.999995
v 47.087982 170.425552 -1.999995
v 47.087982 170.425568 0.259910
v 58.255051 173.373611 -1.999994
v 58.255051 173.373611 0.259911
v 46.907547 23.401028 0.649767
v 46.907547 23.401028 -1.999995
v 31.930283 170.520035 -1.999995
v 31.930283 23.401028 -1.999995
v 31.930283 170.520035 0.649767
v 31.930283 23.401028 0.649767
v 31.930283 20.520037 0.649767
v 31.930283 20.520037 -1.999995
v 46.907547 20.520037 -1.999995
v 46.907547 20.520037 0.649767
v 18.338943 170.520035 0.000005
v 18.338943 170.520035 -1.999996
v 18.338943 23.401028 -1.999996
v 18.338943 23.401016 0.000005
v 18.338943 20.520037 0.000005
v 18.338943 20.520037 -1.999996
v 72.547516 170.520035 0.259912
v 72.547516 170.520035 -1.999993
v 72.547516 23.275166 -1.999993
v 72.547516 23.275194 0.259912
v 88.673431 170.446091 -1.999993
v 88.320129 23.332756 -1.999993
v 88.673431 170.446091 0.259912
v 88.320145 23.332756 0.259912
v 72.547516 20.520037 0.259912
v 72.547516 20.520037 -1.999993
v 88.320129 20.520037 -1.999993
v 88.320129 20.520037 0.259912
v 88.673431 173.373611 0.259912
v 88.673431 173.373611 -1.999993
v 99.840500 173.373611 -1.999992
v 99.856750 170.446091 -1.999992
v 99.840500 173.373611 0.259913
v 99.856750 170.446091 0.259913
v 100.673431 23.373608 -1.999992
v 100.673431 23.373608 0.259913
v -53.707684 170.520035 0.259906
v -53.707684 170.520035 -1.999999
v -53.707684 167.815720 -1.999999
v -53.707684 167.815720 0.259906
v -37.935066 170.520035 -1.999998
v -37.935066 167.815720 -1.999998
v -37.935066 170.211365 0.259907
v -37.935066 167.815720 0.259907
v -53.707684 20.520037 0.259906
v -53.707684 20.520037 -1.999999
v -37.935066 20.520037 -1.999998
v -37.935066 20.520037 0.259907
v -82.637383 170.520035 -2.000000
v -69.553612 170.520035 -2.000000
v -69.553612 167.915588 -2.000000
v -82.637383 167.880508 -2.000000
v -69.553612 170.520035 0.000001
v -69.553612 167.915588 0.000001
v -82.637383 170.520035 0.649762
v -82.637383 167.880508 0.649762
v -82.637383 20.520037 0.649762
v -82.637383 20.520037 -2.000000
v -69.553612 20.520037 -2.000000
v -69.553612 20.520037 0.000001
v -97.614647 170.520035 0.649761
v -97.614647 170.520035 -2.000001
v -97.614647 167.840347 -2.000001
v -97.614647 167.840347 0.649761
v -97.614647 20.520037 0.649761
v -97.614647 20.520037 -2.000001
v -69.553612 18.022120 0.000001
v -69.553612 18.022125 -2.000000
v -53.707684 18.022125 -1.999999
v -53.707684 18.022125 0.259906
v -37.390781 170.295090 1.098943
v -37.390781 170.520035 -0.901058
v -37.390781 20.191225 -1.999998
v -37.390781 20.191225 0.000003
v -24.141403 170.520035 -1.999998
v -24.141403 21.137209 -1.999998
v -24.141403 170.295090 0.000003
v -24.141403 21.137209 0.000003
v 1.033569 170.520035 -1.999997
v 17.123772 170.520035 -1.999996
v 17.123772 20.520037 -1.999996
v 1.351143 20.520037 -1.999997
v 17.123772 170.520035 0.259909
v 17.123772 20.520037 0.259909
v 1.033569 170.520035 0.000004
v 1.351143 20.520037 0.259908
v -11.834045 170.520035 -1.999997
v -10.966423 20.520037 -1.999997
v -11.834045 170.520035 0.000004
v -10.966423 20.520037 0.000004
v -23.364296 170.520035 0.259907
v -23.364296 170.520035 -1.999998
v -23.364296 20.520037 -1.999998
v -23.364296 20.520037 0.259907
vt 0.882363 0.415455
vt 0.831820 0.415455
vt 0.831820 0.225918
vt 0.882363 0.225918
vt 0.781277 0.415455
vt 0.781277 0.225918
vt 0.983450 0.415455
vt 0.932907 0.415455
vt 0.932907 0.225918
vt 0.983450 0.225918
vt 0.782194 0.158062
vt 0.833940 0.158062
vt 0.833940 0.209808
vt 0.782195 0.209808
vt 0.850406 0.157005
vt 0.902151 0.157005
vt 0.902151 0.208750
vt 0.850406 0.208750
vt 0.932907 0.984064
vt 0.882364 0.984064
vt 0.882364 0.794528
vt 0.932907 0.794527
vt 0.882363 0.604991
vt 0.932907 0.604991
vt 0.983450 0.984064
vt 0.983450 0.794527
vt 0.983450 0.604991
vt 0.831821 0.984064
vt 0.781277 0.984064
vt 0.781277 0.794528
vt 0.831820 0.794527
vt 0.781277 0.604991
vt 0.831820 0.604991
vt 0.765659 0.901937
vt 0.747599 0.901937
vt 0.747599 0.873040
vt 0.765659 0.873040
vt 0.010002 0.857897
vt 0.732438 0.857138
vt 0.732591 0.882423
vt 0.010177 0.886793
vt 0.766184 0.857791
vt 0.748123 0.857791
vt 0.748123 0.832506
vt 0.766184 0.832506
vt 0.732419 0.839078
vt 0.009983 0.839835
vt 0.010097 0.810938
vt 0.732519 0.813794
vt 0.010169 0.792878
vt 0.732590 0.795734
vt 0.766735 0.946325
vt 0.748674 0.946325
vt 0.748674 0.921040
vt 0.766735 0.921040
vt 0.009983 0.964267
vt 0.732415 0.964267
vt 0.732415 0.989552
vt 0.009983 0.989552
vt 0.765003 0.812033
vt 0.746942 0.812033
vt 0.746943 0.786749
vt 0.765003 0.786749
vt 0.732415 0.946206
vt 0.009983 0.946207
vt 0.009983 0.920922
vt 0.732415 0.920922
vt 0.009983 0.902862
vt 0.732415 0.902862
vt 0.381959 0.760023
vt 0.328482 0.760023
vt 0.328483 0.147451
vt 0.378414 0.147186
vt 0.457192 0.759305
vt 0.446312 0.759386
vt 0.439226 0.146856
vt 0.450106 0.146775
vt 0.392839 0.760005
vt 0.389295 0.147168
vt 0.378353 0.128329
vt 0.378353 0.136641
vt 0.328483 0.136641
vt 0.328483 0.128329
vt 0.328482 0.768335
vt 0.381959 0.768335
vt 0.439101 0.136046
vt 0.449981 0.135965
vt 0.389234 0.136623
vt 0.528445 0.757015
vt 0.517476 0.756985
vt 0.517480 0.744633
vt 0.528449 0.744663
vt 0.470689 0.756969
vt 0.470626 0.745001
vt 0.586202 0.757122
vt 0.575232 0.757031
vt 0.575303 0.745064
vt 0.586272 0.745155
vt 0.517696 0.119055
vt 0.517693 0.128523
vt 0.467417 0.128506
vt 0.467420 0.119037
vt 0.470685 0.766437
vt 0.517473 0.766453
vt 0.528663 0.128553
vt 0.578939 0.128570
vt 0.079212 0.762182
vt 0.015664 0.762182
vt 0.015665 0.137964
vt 0.079212 0.137964
vt 0.154003 0.762182
vt 0.090455 0.762182
vt 0.090455 0.137964
vt 0.154002 0.137964
vt 0.079212 0.114497
vt 0.079212 0.125740
vt 0.015665 0.125740
vt 0.015665 0.114497
vt 0.015664 0.773425
vt 0.079212 0.773425
vt 0.247637 0.759183
vt 0.236744 0.759138
vt 0.236744 0.147062
vt 0.247637 0.147107
vt 0.181621 0.759138
vt 0.181622 0.147062
vt 0.302760 0.759183
vt 0.302760 0.147107
vt 0.236744 0.126755
vt 0.236744 0.135076
vt 0.181622 0.135076
vt 0.181621 0.126755
vt 0.181621 0.767459
vt 0.236744 0.767459
vt 0.165245 0.137964
vt 0.154002 0.125740
vt 0.165245 0.125740
vt 0.247637 0.135121
vt 0.090455 0.125740
vt 0.302760 0.135121
vt 0.685134 0.751811
vt 0.674132 0.751784
vt 0.674133 0.133069
vt 0.685134 0.133095
vt 0.607857 0.751784
vt 0.607857 0.133311
vt 0.751410 0.751811
vt 0.751410 0.133337
vt 0.674133 0.111996
vt 0.674133 0.121492
vt 0.607857 0.121492
vt 0.607857 0.111996
vt 0.607857 0.761280
vt 0.674132 0.761280
vt 0.685134 0.121518
vt 0.751410 0.121518
vt 0.762411 0.133363
vt 0.762411 0.121544
vt 0.528445 0.757015
vt 0.517476 0.756985
vt 0.517480 0.744719
vt 0.528449 0.744749
vt 0.470689 0.756969
vt 0.470625 0.744703
vt 0.586202 0.757122
vt 0.575232 0.757031
vt 0.575305 0.744766
vt 0.586274 0.744857
vt 0.517696 0.119055
vt 0.517693 0.128523
vt 0.467417 0.128506
vt 0.467420 0.119037
vt 0.470685 0.766437
vt 0.517473 0.766453
vt 0.528663 0.128553
vt 0.578939 0.128570
vt 0.589908 0.128661
vt 0.685134 0.751811
vt 0.674132 0.751784
vt 0.674132 0.740421
vt 0.685134 0.740447
vt 0.607857 0.751784
vt 0.607857 0.740421
vt 0.762411 0.751837
vt 0.751410 0.751811
vt 0.751410 0.740447
vt 0.762411 0.740473
vt 0.674133 0.111996
vt 0.674133 0.121492
vt 0.607857 0.121492
vt 0.607857 0.111996
vt 0.607857 0.761280
vt 0.674132 0.761280
vt 0.751410 0.121518
vt 0.762411 0.121544
vt 0.685134 0.121518
vt 0.381959 0.760023
vt 0.328482 0.760023
vt 0.328482 0.749199
vt 0.381895 0.749053
vt 0.457192 0.759305
vt 0.446312 0.759386
vt 0.446187 0.748563
vt 0.457067 0.748482
vt 0.392839 0.760005
vt 0.392776 0.749035
vt 0.378353 0.128329
vt 0.378353 0.136641
vt 0.328483 0.136641
vt 0.328483 0.128329
vt 0.328482 0.768335
vt 0.381959 0.768335
vt 0.090455 0.762182
vt 0.079212 0.762182
vt 0.079212 0.750813
vt 0.090455 0.750813
vt 0.015664 0.762182
vt 0.015664 0.750983
vt 0.154003 0.762182
vt 0.154003 0.750983
vt 0.079212 0.114497
vt 0.079212 0.125740
vt 0.015665 0.125740
vt 0.015665 0.114497
vt 0.015664 0.773425
vt 0.079212 0.773425
vt 0.389234 0.136623
vt 0.439101 0.136046
vt 0.090455 0.125740
vt 0.154002 0.125740
vt 0.079212 0.762182
vt 0.015664 0.762182
vt 0.015665 0.136339
vt 0.079212 0.136339
vt 0.154003 0.762182
vt 0.090455 0.762182
vt 0.090455 0.136339
vt 0.154002 0.136339
vt 0.079212 0.114497
vt 0.079212 0.125740
vt 0.015665 0.125740
vt 0.015665 0.114497
vt 0.015664 0.773425
vt 0.079212 0.773425
vt 0.165245 0.136339
vt 0.154002 0.125740
vt 0.165245 0.125740
vt 0.090455 0.125740
vt 0.247637 0.759183
vt 0.236744 0.759138
vt 0.236744 0.135076
vt 0.247637 0.135121
vt 0.181621 0.759138
vt 0.181622 0.135076
vt 0.313652 0.759228
vt 0.302760 0.759183
vt 0.302760 0.135121
vt 0.313652 0.135166
vt 0.236744 0.126755
vt 0.181621 0.126755
vt 0.181621 0.767459
vt 0.236744 0.767459
vt 0.674132 0.751784
vt 0.607857 0.751784
vt 0.607857 0.121492
vt 0.674133 0.121492
vt 0.762411 0.751837
vt 0.751410 0.751811
vt 0.751410 0.121518
vt 0.762411 0.121544
vt 0.685134 0.751811
vt 0.685134 0.121518
vt 0.674133 0.111996
vt 0.607857 0.111996
vt 0.607857 0.761280
vt 0.674132 0.761280
vt 0.381959 0.760023
vt 0.328482 0.760023
vt 0.328483 0.136641
vt 0.378353 0.136641
vt 0.446312 0.759386
vt 0.392839 0.760005
vt 0.389234 0.136623
vt 0.439101 0.136046
vt 0.378353 0.128329
vt 0.328483 0.128329
vt 0.328482 0.768335
vt 0.381959 0.768335
vt 0.528445 0.757015
vt 0.517476 0.756985
vt 0.517693 0.128523
vt 0.528663 0.128553
vt 0.470689 0.756969
vt 0.467417 0.128506
vt 0.575232 0.757031
vt 0.578939 0.128570
vt 0.517696 0.119055
vt 0.467420 0.119037
vt 0.470685 0.766437
vt 0.517473 0.766453
vn -1.0000 0.0056 -0.0000
vn -0.9999 0.0111 -0.0000
vn 0.0281 -0.0000 -0.9996
vn 0.0276 -0.0002 -0.9996
vn 1.0000 0.0025 0.0000
vn 1.0000 -0.0004 0.0000
vn 0.0653 -0.0001 0.9979
vn 0.0643 -0.0004 0.9979
vn 0.0000 -1.0000 0.0000
vn 0.0000 1.0000 0.0000
vn 0.0316 0.0088 0.9995
vn 0.0321 0.0001 0.9995
vn 0.0495 -0.0043 0.9988
vn 0.0494 -0.0043 0.9988
vn 0.9999 0.0111 0.0000
vn 1.0000 -0.0025 0.0000
vn 1.0000 -0.0054 0.0000
vn 0.0271 0.0003 -0.9996
vn 0.0275 0.0000 -0.9996
vn 0.0282 -0.0001 -0.9996
vn -0.9999 -0.0111 0.0000
vn -1.0000 -0.0056 0.0000
vn -1.0000 0.0000 0.0000
vn 0.0000 0.0000 -1.0000
vn 1.0000 0.0000 0.0000
vn -0.0000 0.0000 1.0000
vn 0.0050 1.0000 0.0000
vn 0.0103 -0.0008 0.9999
vn 0.0051 -0.0004 1.0000
vn 0.0052 -0.0004 1.0000
vn -0.0002 1.0000 0.0000
vn 0.7051 0.7091 0.0000
vn 0.7095 0.7047 0.0000
vn -0.7037 -0.7105 -0.0000
vn -0.7147 -0.6995 -0.0000
vn -1.0000 -0.0058 -0.0000
vn -0.7049 0.7093 -0.0000
vn -0.6991 0.7150 -0.0000
vn 1.0000 0.0056 0.0000
vn 0.0137 0.0003 0.9999
vn 0.0136 0.0003 0.9999
vn 0.7096 -0.7046 -0.0000
vn 0.6974 -0.7167 -0.0000
vn 0.0273 0.0005 0.9996
vn 0.0129 0.0013 0.9999
vn 0.0065 0.0007 1.0000
vn 0.0031 1.0000 -0.0000
vn -0.0478 0.0000 0.9989
vn -0.7055 0.7087 0.0000
vn 0.0046 1.0000 0.0000
vn 0.7083 -0.7059 -0.0000
vn 0.0033 -1.0000 0.0000
vn -0.7086 0.7056 0.0000
vn 0.7071 -0.7071 0.0000
vn 0.0098 0.9976 0.0681
vn 0.7057 0.7085 0.0000
vn 0.7093 0.7049 0.0000
vn 0.0496 0.0000 0.9988
vn -0.7071 -0.7071 0.0000
vn -0.6960 -0.7180 0.0000
vn -0.0164 0.0000 0.9999
vn -0.0416 0.0037 -0.9991
vn 0.0416 -0.0037 0.9991
vn 0.0712 -0.9975 0.0000
vn 0.0093 0.9937 0.1118
vn -0.0082 0.0009 1.0000
vn -0.0092 0.0008 1.0000
vn -0.0103 0.0008 0.9999
vn 0.0217 0.0001 0.9998
usemtl wood_fance_t1_m
s 1
f 1/1/1 2/2/1 3/3/2 4/4/2
f 2/2/3 5/5/3 6/6/4 3/3/4
f 5/7/5 7/8/5 8/9/6 6/10/6
f 7/8/7 1/1/7 4/4/8 8/9/8
f 4/11/9 3/12/9 6/13/9 8/14/9
f 9/15/10 10/16/10 11/17/10 12/18/10
f 9/19/11 12/20/11 13/21/12 14/22/12
f 14/22/12 13/21/12 15/23/13 16/24/14
f 16/24/14 15/23/13 1/1/7 7/8/7
f 10/25/15 9/19/15 14/22/16 17/26/16
f 17/26/16 14/22/16 16/24/17 18/27/17
f 18/27/17 16/24/17 7/8/5 5/7/5
f 11/28/18 10/29/18 17/30/19 19/31/19
f 19/31/19 17/30/19 18/32/20 20/33/20
f 20/33/20 18/32/20 5/5/3 2/2/3
f 12/20/21 11/28/21 19/31/22 13/21/22
f 13/21/22 19/31/22 20/33/23 15/23/23
f 15/23/23 20/33/23 2/2/1 1/1/1
f 21/34/23 22/35/23 23/36/23 24/37/23
f 22/38/24 25/39/24 26/40/24 23/41/24
f 25/42/25 27/43/25 28/44/25 26/45/25
f 27/46/26 21/47/26 24/48/26 28/49/26
f 24/48/9 23/50/9 26/51/9 28/49/9
f 27/46/27 25/39/27 22/38/27 21/47/27
f 29/52/23 30/53/23 31/54/23 32/55/23
f 30/56/24 33/57/24 34/58/24 31/59/24
f 33/60/25 35/61/25 36/62/25 34/63/25
f 35/64/26 29/65/26 32/66/26 36/67/26
f 32/66/9 31/68/9 34/69/9 36/67/9
f 35/64/10 33/57/10 30/56/10 29/65/10
f 37/70/24 38/71/24 39/72/24 40/73/24
f 38/74/25 41/75/25 42/76/25 39/77/25
f 41/75/28 43/78/28 44/79/29 42/76/30
f 45/80/9 46/81/9 47/82/9 48/83/9
f 41/84/31 38/71/31 37/70/32 43/85/33
f 39/77/25 42/76/25 48/86/25 47/87/25
f 42/76/30 44/79/29 45/88/26 48/86/26
f 44/79/34 40/73/35 46/81/36 45/88/36
f 40/73/24 39/72/24 47/82/24 46/81/24
f 49/89/23 50/90/23 51/91/37 52/92/38
f 50/90/24 53/93/24 37/94/24 51/91/24
f 53/95/39 54/96/39 43/97/33 37/98/32
f 54/96/26 49/89/26 52/92/40 43/97/41
f 55/99/42 56/100/43 40/101/35 44/102/34
f 54/103/10 53/93/10 50/90/10 49/104/10
f 51/91/24 37/94/24 40/101/24 56/100/24
f 43/97/41 52/92/40 55/105/44 44/106/44
f 57/107/24 51/108/24 56/109/24 58/110/24
f 52/111/45 59/112/45 60/113/46 55/114/46
f 61/115/9 62/116/9 63/117/9 64/118/9
f 52/119/38 51/108/37 57/107/47 59/120/47
f 65/121/23 66/122/23 67/123/23 68/124/23
f 66/122/24 57/125/24 58/126/24 67/123/24
f 59/127/48 65/121/48 68/124/48 60/128/48
f 69/129/9 70/130/9 62/131/9 61/132/9
f 59/133/47 57/125/47 66/122/10 65/134/10
f 56/135/43 55/114/42 64/136/25 63/137/25
f 68/124/23 67/123/23 70/130/23 69/138/23
f 55/114/46 60/113/46 61/139/26 64/136/26
f 67/123/24 58/126/24 62/131/24 70/130/24
f 58/110/24 56/109/24 63/117/24 62/116/24
f 60/128/48 68/124/48 69/138/48 61/140/48
f 71/141/23 72/142/23 73/143/23 74/144/23
f 72/142/24 75/145/24 76/146/24 73/143/24
f 77/147/26 71/141/26 74/144/26 78/148/26
f 79/149/9 80/150/9 81/151/9 82/152/9
f 77/153/49 75/145/49 72/142/50 71/154/50
f 78/148/26 74/144/26 79/155/26 82/156/26
f 74/144/23 73/143/23 80/150/23 79/155/23
f 73/143/24 76/146/24 81/151/24 80/150/24
f 76/157/51 78/148/51 82/156/25 81/158/25
f 83/159/23 84/160/23 75/161/49 77/162/49
f 84/160/24 85/163/24 86/164/24 75/161/24
f 85/165/39 87/166/39 88/167/39 86/168/39
f 87/166/26 83/159/26 77/162/26 88/167/26
f 78/169/51 76/170/51 89/171/52 90/172/52
f 87/173/10 85/163/10 84/160/10 83/174/10
f 88/167/26 77/162/26 78/175/26 90/176/26
f 75/161/24 86/164/24 89/171/24 76/170/24
f 86/168/39 88/167/39 90/176/39 89/177/39
f 91/178/23 92/179/23 93/180/37 94/181/53
f 92/179/24 95/182/24 96/183/24 93/180/24
f 95/184/25 97/185/25 98/186/25 96/187/25
f 97/185/26 91/178/26 94/181/26 98/186/26
f 99/188/54 100/189/54 101/190/9 102/191/9
f 97/192/55 95/182/55 92/179/55 91/193/55
f 93/180/24 96/183/24 101/190/24 100/189/24
f 96/187/25 98/186/25 102/194/25 101/195/25
f 98/186/26 94/181/26 99/196/26 102/194/26
f 103/197/24 104/198/24 105/199/24 106/200/24
f 104/201/25 107/202/25 108/203/56 105/204/57
f 107/202/58 109/205/58 110/206/58 108/203/58
f 111/207/9 112/208/9 113/209/59 114/210/60
f 107/211/10 104/198/10 103/197/10 109/212/10
f 115/213/23 116/214/23 117/215/23 118/216/23
f 116/214/24 103/217/24 106/218/24 117/215/24
f 109/219/26 115/213/26 118/216/26 110/220/26
f 119/221/9 120/222/9 112/223/9 111/224/9
f 109/225/10 103/217/10 116/214/10 115/226/10
f 108/203/58 110/206/58 111/227/58 114/228/58
f 117/215/24 106/218/24 112/223/24 120/222/24
f 106/200/24 105/199/24 113/209/24 112/208/24
f 110/220/26 118/216/26 119/229/26 111/230/26
f 118/216/23 117/215/23 120/222/23 119/229/23
f 105/231/24 93/232/24 100/233/24 113/234/24
f 94/235/61 108/236/61 114/237/61 99/238/61
f 121/239/9 122/240/9 123/241/9 124/242/9
f 94/243/53 93/232/37 105/231/57 108/244/56
f 113/234/24 100/233/24 123/241/24 122/240/24
f 100/245/54 99/238/54 124/246/25 123/247/25
f 99/238/61 114/237/61 121/248/61 124/246/61
f 114/237/60 113/234/59 122/240/23 121/248/23
f 125/249/23 126/250/23 127/251/23 128/252/23
f 126/250/62 129/253/62 130/254/62 127/251/62
f 129/255/25 131/256/25 132/257/25 130/258/25
f 131/256/63 125/249/63 128/252/63 132/257/63
f 128/259/64 127/251/64 130/254/64 132/260/64
f 131/261/65 129/253/65 126/250/65 125/262/65
f 133/263/24 134/264/24 135/265/24 136/266/24
f 134/267/25 137/268/25 138/269/25 135/270/25
f 137/268/66 139/271/67 140/272/67 138/269/66
f 140/273/9 136/266/9 135/265/9 138/274/9
f 137/275/10 134/264/10 133/263/10 139/276/10
f 141/277/24 133/278/24 136/279/24 142/280/24
f 139/281/67 143/282/68 144/283/68 140/284/67
f 144/285/9 142/280/9 136/279/9 140/286/9
f 139/287/10 133/278/10 141/277/10 143/288/10
f 145/289/23 146/290/23 147/291/23 148/292/23
f 146/290/24 141/293/24 142/294/24 147/291/24
f 143/295/69 145/289/69 148/292/69 144/296/69
f 148/297/9 147/291/9 142/294/9 144/298/9
f 143/299/10 141/293/10 146/290/10 145/300/10
