# Blender v2.90.1 OBJ File: ''
# www.blender.org
mtllib grass06.mtl
o Herbe_Plan.001
v -1.685974 0.002650 0.084500
v 1.647847 0.002650 -1.861514
v 1.647847 0.470050 -1.861514
v -1.685974 0.470050 0.084500
v 0.060039 0.008115 1.884910
v 0.060039 0.008114 -1.975314
v -0.099318 0.447509 -1.975314
v -0.099317 0.447510 1.884911
v 1.466419 0.002987 2.063203
v 1.466418 0.002986 -1.797021
v 1.566687 0.459504 -1.797021
v 1.566688 0.459504 2.063203
v -1.509400 0.002882 1.653788
v -1.715362 0.422456 1.653787
v -1.715364 0.422456 -2.206437
v -1.509401 0.002882 -2.206437
v -1.685973 0.002650 1.687121
v 1.647847 0.002650 -0.258894
v 1.647847 0.470050 -0.258894
v -1.685973 0.470050 1.687121
v -1.949175 0.004870 -0.121520
v -1.949175 0.447473 0.028698
v 1.911049 0.447473 0.028697
v 1.911049 0.004871 -0.121521
vt 0.000098 0.000098
vt 0.999902 0.000101
vt 0.999902 0.968559
vt 0.000098 0.968559
vt 0.000098 0.000098
vt 0.999902 0.000101
vt 0.999902 0.968559
vt 0.000098 0.968559
vt 0.000098 0.000098
vt 0.999902 0.000101
vt 0.999902 0.968559
vt 0.000098 0.968559
vt 0.000098 0.000098
vt 0.000098 0.968559
vt 0.999902 0.968559
vt 0.999902 0.000101
vt 0.000098 0.000098
vt 0.999902 0.000101
vt 0.999902 0.968559
vt 0.000098 0.968559
vt 0.000098 0.000098
vt 0.000098 0.968559
vt 0.999902 0.968559
vt 0.999902 0.000101
vn 0.5041 -0.0000 0.8636
vn 0.9401 0.3409 -0.0000
vn 0.9767 -0.2145 -0.0000
vn -0.8977 -0.4407 0.0000
vn -0.0000 0.3214 -0.9469
usemtl Herbe_M.001
s 1
f 1/1/1 2/2/1 3/3/1 4/4/1
f 5/5/2 6/6/2 7/7/2 8/8/2
f 9/9/3 10/10/3 11/11/3 12/12/3
f 13/13/4 14/14/4 15/15/4 16/16/4
f 17/17/1 18/18/1 19/19/1 20/20/1
f 21/21/5 22/22/5 23/23/5 24/24/5
